<svg xmlns="http://www.w3.org/2000/svg" width="48" height="46" fill="none" viewBox="0 0 48 46">
  <defs>
    <linearGradient id="boltFill" x1="0" y1="0" x2="48" y2="46" gradientUnits="userSpaceOnUse">
      <stop offset="0" stop-color="#fbbf24"/>
      <stop offset="0.55" stop-color="#f59e0b"/>
      <stop offset="1" stop-color="#b45309"/>
    </linearGradient>
    <radialGradient id="boltGlow" cx="0" cy="0" r="1" gradientUnits="userSpaceOnUse" gradientTransform="translate(16 12) rotate(55) scale(34 28)">
      <stop offset="0" stop-color="#fef3c7" stop-opacity="0.85"/>
      <stop offset="0.5" stop-color="#fde68a" stop-opacity="0.25"/>
      <stop offset="1" stop-color="#fde68a" stop-opacity="0"/>
    </radialGradient>
    <linearGradient id="boltStroke" x1="0" y1="0" x2="0" y2="46" gradientUnits="userSpaceOnUse">
      <stop offset="0" stop-color="#fef3c7" stop-opacity="0.7"/>
      <stop offset="1" stop-color="#78350f" stop-opacity="0.4"/>
    </linearGradient>
    <clipPath id="boltClip">
      <path d="M25.946 44.938c-.664.845-2.021.375-2.021-.698V33.937a2.26 2.26 0 0 0-2.262-2.262H10.287c-.92 0-1.456-1.04-.92-1.788l7.48-10.471c1.07-1.497 0-3.578-1.842-3.578H1.237c-.92 0-1.456-1.04-.92-1.788L10.013.474c.214-.297.556-.474.92-.474h28.894c.92 0 1.456 1.04.92 1.788l-7.48 10.471c-1.07 1.498 0 3.579 1.842 3.579h11.377c.943 0 1.473 1.088.89 1.83L25.947 44.94z"/>
    </clipPath>
  </defs>

  <path
    d="M25.946 44.938c-.664.845-2.021.375-2.021-.698V33.937a2.26 2.26 0 0 0-2.262-2.262H10.287c-.92 0-1.456-1.04-.92-1.788l7.48-10.471c1.07-1.497 0-3.578-1.842-3.578H1.237c-.92 0-1.456-1.04-.92-1.788L10.013.474c.214-.297.556-.474.92-.474h28.894c.92 0 1.456 1.04.92 1.788l-7.48 10.471c-1.07 1.498 0 3.579 1.842 3.579h11.377c.943 0 1.473 1.088.89 1.83L25.947 44.94z"
    fill="url(#boltFill)"
  />

  <g clip-path="url(#boltClip)">
    <rect width="48" height="46" fill="url(#boltGlow)"/>
    <path
      d="M16.5 17 L33 1.5"
      stroke="#fef3c7"
      stroke-opacity="0.55"
      stroke-width="1.2"
      stroke-linecap="round"
    />
    <path
      d="M11.5 31 L29 14"
      stroke="#fef9c3"
      stroke-opacity="0.35"
      stroke-width="0.9"
      stroke-linecap="round"
    />
  </g>

  <path
    d="M25.946 44.938c-.664.845-2.021.375-2.021-.698V33.937a2.26 2.26 0 0 0-2.262-2.262H10.287c-.92 0-1.456-1.04-.92-1.788l7.48-10.471c1.07-1.497 0-3.578-1.842-3.578H1.237c-.92 0-1.456-1.04-.92-1.788L10.013.474c.214-.297.556-.474.92-.474h28.894c.92 0 1.456 1.04.92 1.788l-7.48 10.471c-1.07 1.498 0 3.579 1.842 3.579h11.377c.943 0 1.473 1.088.89 1.83L25.947 44.94z"
    fill="none"
    stroke="url(#boltStroke)"
    stroke-width="0.6"
    stroke-linejoin="round"
  />
</svg>
